<?xml version="1.0" encoding="UTF-8" standalone="no"?>
<svg
   xmlns:dc="http://purl.org/dc/elements/1.1/"
   xmlns:cc="http://creativecommons.org/ns#"
   xmlns:rdf="http://www.w3.org/1999/02/22-rdf-syntax-ns#"
   xmlns:svg="http://www.w3.org/2000/svg"
   xmlns="http://www.w3.org/2000/svg"
   xmlns:sodipodi="http://sodipodi.sourceforge.net/DTD/sodipodi-0.dtd"
   xmlns:inkscape="http://www.inkscape.org/namespaces/inkscape"
   inkscape:version="1.0 (4035a4fb49, 2020-05-01)"
   sodipodi:docname="icon_animation_player.svg"
   id="svg4"
   version="1.1"
   width="16"
   viewBox="0 0 16 16"
   height="16">
  <metadata
     id="metadata10">
    <rdf:RDF>
      <cc:Work
         rdf:about="">
        <dc:format>image/svg+xml</dc:format>
        <dc:type
           rdf:resource="http://purl.org/dc/dcmitype/StillImage" />
      </cc:Work>
    </rdf:RDF>
  </metadata>
  <defs
     id="defs8">
    <inkscape:perspective
       id="perspective154"
       inkscape:persp3d-origin="13.907943 : 3.5798264 : 1"
       inkscape:vp_z="40.51993 : 16.807666 : 1"
       inkscape:vp_y="0 : 4960.4403 : 0"
       inkscape:vp_x="-12.704046 : 16.807666 : 1"
       sodipodi:type="inkscape:persp3d" />
  </defs>
  <sodipodi:namedview
     inkscape:current-layer="svg4"
     inkscape:window-maximized="1"
     inkscape:window-y="-8"
     inkscape:window-x="-8"
     inkscape:cy="8.20957"
     inkscape:cx="10.429861"
     inkscape:zoom="37.565048"
     showgrid="false"
     id="namedview6"
     inkscape:window-height="1017"
     inkscape:window-width="1920"
     inkscape:pageshadow="2"
     inkscape:pageopacity="0"
     guidetolerance="10"
     gridtolerance="10"
     objecttolerance="10"
     borderopacity="1"
     bordercolor="#666666"
     pagecolor="#ffffff" />
  <path
     id="path2"
     transform="translate(0 -1036.4)"
     fill="#cea4f1"
     d="m1 1037.4v14h1.1667v-2h1.8333v2h8v-2h2v2h1v-14h-1v2h-2v-2h-8v2h-1.8333v-2zm1.1667 4h1.8333v2h-1.8333zm9.8333 0h2v2h-2zm-9.8333 4h1.8333v2h-1.8333zm9.8333 0h2v2h-2z" />
  <g
     inkscape:corner7="0.31231608 : -0.0013544154 : 0.25 : 1"
     inkscape:corner0="0.65121089 : 0.0011477281 : 0 : 1"
     inkscape:perspectiveID="#perspective154"
     style="fill:#008000"
     id="g156"
     sodipodi:type="inkscape:box3d">
    <path
       points="12.846471,4.0150475 12.846471,11.959492 8.2920377,9.6837195 8.2920377,3.1553888 "
       d="M 8.2920377,3.1553888 12.846471,4.0150475 V 11.959492 L 8.2920377,9.6837195 Z"
       inkscape:box3dsidetype="11"
       style="fill:#e9e9ff;fill-rule:evenodd;stroke:none;stroke-width:4.06212;stroke-linejoin:round"
       id="path168"
       sodipodi:type="inkscape:box3dside" />
    <path
       points="3.4126046,11.272158 8.2920377,9.6837195 8.2920377,3.1553888 3.4126046,3.7554113 "
       d="M 3.4126046,3.7554113 V 11.272158 L 8.2920377,9.6837195 V 3.1553888 Z"
       inkscape:box3dsidetype="6"
       style="fill:#353564;fill-rule:evenodd;stroke:none;stroke-width:4.06212;stroke-linejoin:round"
       id="path158"
       sodipodi:type="inkscape:box3dside" />
    <path
       points="7.5745968,14.391673 12.846471,11.959492 8.2920377,9.6837195 3.4126046,11.272158 "
       d="M 3.4126046,11.272158 7.5745968,14.391673 12.846471,11.959492 8.2920377,9.6837195 Z"
       inkscape:box3dsidetype="13"
       style="fill:#afafde;fill-rule:evenodd;stroke:none;stroke-width:4.06212;stroke-linejoin:round"
       id="path166"
       sodipodi:type="inkscape:box3dside" />
    <path
       points="7.5745968,4.9337884 12.846471,4.0150475 8.2920377,3.1553888 3.4126046,3.7554113 "
       d="M 3.4126046,3.7554113 7.5745968,4.9337884 12.846471,4.0150475 8.2920377,3.1553888 Z"
       inkscape:box3dsidetype="5"
       style="fill:#4d4d9f;fill-rule:evenodd;stroke:none;stroke-width:4.06212;stroke-linejoin:round"
       id="path160"
       sodipodi:type="inkscape:box3dside" />
    <path
       points="7.5745968,14.391673 12.846471,11.959492 12.846471,4.0150475 7.5745968,4.9337884 "
       d="M 7.5745968,4.9337884 V 14.391673 L 12.846471,11.959492 V 4.0150475 Z"
       inkscape:box3dsidetype="14"
       style="fill:#d7d7ff;fill-rule:evenodd;stroke:none;stroke-width:4.06212;stroke-linejoin:round"
       id="path164"
       sodipodi:type="inkscape:box3dside" />
    <path
       points="7.5745968,4.9337884 7.5745968,14.391673 3.4126046,11.272158 3.4126046,3.7554113 "
       d="M 3.4126046,3.7554113 7.5745968,4.9337884 V 14.391673 L 3.4126046,11.272158 Z"
       inkscape:box3dsidetype="3"
       style="fill:#8686bf;fill-rule:evenodd;stroke:none;stroke-width:4.06212;stroke-linejoin:round"
       id="path162"
       sodipodi:type="inkscape:box3dside" />
  </g>
</svg>
